<svg version="1" xmlns="http://www.w3.org/2000/svg" width="682.667" height="682.667" viewBox="0 0 512.000000 512.000000"><path d="M236.9 3.5c-.2.2-3.1.6-6.3.9-45.8 4.9-89.7 22.7-126.5 51.5C54.3 94.8 21.9 150.6 12.4 214c-2.5 16.6-2.5 55.1 0 69 .3 1.4.7 4.3 1.1 6.5.3 2.2 1.5 8 2.6 12.8 1.7 7.2 2.4 8.7 3.7 8.3 1-.3 3.7-.8 6.2-1.1 2.5-.3 7-1 10-1.5s7.5-1.2 10-1.5c6.1-.8 8.7-1.2 14-2.1 2.5-.4 5.4-.8 6.5-1 1.1-.1 4.9-.7 8.5-1.3 15.9-2.5 18.9-2.9 21.8-3 1.3-.1 2.6-1 3.2-2.4 1-2.4 2.9-4.5 27-29.7 9.3-9.6 18.2-18.9 19.8-20.6l3-3.2 23.4 23.4 23.3 23.4.1-4.2c.1-4.8 1.3-31 1.9-43.3.7-12.6 1.4-27 2-40.5l.6-12.5-21.6-21.5-21.5-21.5-30.1 30c-33.2 33.1-32 32.5-24.1 12.5 4.5-11.7 6.4-15.4 13.5-27 23.3-37.8 62.2-64.5 108.2-74.2 14.8-3.1 45.6-3.3 61-.4 11 2 29.6 7.8 39 12.1 15.5 7.1 34.4 19.8 45.4 30.6l5.4 5.3-13.1 12.5c-23.9 23-27.3 26.4-27 26.6.3.3 8.5 1.3 15.8 2 4.5.4 15.5 1.7 18 2 1.4.2 5.7.6 9.5 1 3.9.3 8.1.7 9.5 1 2.4.4 6.2.8 19.5 2 3.3.3 7.6.8 9.5 1 3.4.5 8.4 1 18.5 2 2.8.3 6.6.8 8.5 1 3.5.5 7.3.9 18.5 2 3.3.3 7.6.8 9.5 1 1.9.3 6.1.7 9.3 1.1l5.8.5-.5-2.8c-.3-1.5-.7-6.9-1.1-11.8-.3-5-.8-10.6-1-12.5-.2-1.9-.7-7.1-1-11.5-.3-4.4-.8-10-1-12.5-.2-2.5-.7-8.1-1-12.5-.3-4.4-.8-10.3-1-13-.2-2.8-.7-8.4-1-12.5-.4-4.1-.8-9.3-1-11.5-.2-2.2-.6-8.1-1-13-.4-5-.8-10.1-1-11.5-.4-3-1.8-20.6-1.9-23.8 0-1.2-.1-2.2-.2-2.2-.2 0-8.1 7.5-23.4 22.4-18 17.3-16.4 16.3-19.2 13.4-30.7-31.3-74-55.5-117.7-66-10.7-2.5-8.3-2.1-29.6-5.3-4.3-.7-48.1-1.6-48.6-1zM295.1 293.4l-22.4 44.3 14.6 23.4c8 12.9 15.2 24.1 15.9 25.1 1.2 1.5 3.2.8 21.8-7.3 11.3-5 21.2-9.3 22-9.6.8-.3 6.4-2.8 12.4-5.5 6-2.6 11.1-4.6 11.3-4.5.7.8-12.8 11.3-20.6 16.2-11.7 7.2-35.3 17.2-45.1 19.1-1.4.3-4.3 1-6.5 1.6-2.2.5-4.9 1.2-6 1.4-1.1.2-3.1.6-4.6.9-9.6 2.1-27.6 3.3-46.4 3-11.5-.2-22.1-.6-23.5-.9-1.4-.3-6.1-1-10.6-1.6-7.6-1-9.2-1.3-15.4-2.7-1.4-.3-3.1-.6-3.7-.6-.7 0-1.3-.2-1.3-.5 0-.2 3.1-6.1 6.9-13 3.8-7 8.3-15.4 10.1-18.7 1.8-3.3 5.1-9.3 7.3-13.4l4-7.4-3.9.8c-2.1.4-5 .9-6.4 1.1-1.4.3-4.7.9-7.5 1.4-2.7.5-6.1 1.1-7.5 1.4-1.4.2-3.6.7-5 1-1.4.3-4.3.8-6.5 1.1-2.2.3-5.6 1-7.5 1.5-1.9.5-5.1 1.1-7 1.4-3.9.5-24.9 4.4-41 7.6-5.8 1.1-11.8 2.3-13.5 2.5-11.7 2-46 8.7-46.3 9-.2.2 8 22.6 18.3 49.7s21.9 58 25.8 68.5c4 10.6 7.5 19.3 7.8 19.3.3 0 6.8-9.3 14.4-20.7 7.6-11.5 14-21 14.2-21.2.1-.2 1.3.1 2.6.7 5.5 2.7 42.8 13.4 55.2 15.8 1.1.2 3.1.6 4.5.9 5.1 1 19.6 3.4 24 4 2.5.3 6.8.8 9.5 1.1 8.1 1 44.5 1.2 51 .4 3.3-.5 8.3-1.1 11-1.4 22.2-2.6 46-9.9 67.8-20.7 8.6-4.3 22.3-12.3 23.7-13.9.3-.3 2.3-1.7 4.5-3.1 7.1-4.6 22.8-18.3 31.9-28 30.4-32.1 54.6-75.5 68.5-122.4 4.1-13.9 4.4-15.5 2.9-15.6-.7 0-2-.2-2.8-.4-2.1-.4-5.3-1-22-3.9-8-1.4-15.6-2.8-17-3-1.4-.3-10.5-1.9-20.3-3.6l-17.9-3.2-7.6 3.5c-4.3 1.9-21.9 9.9-39.2 17.7-17.3 7.8-33.3 15.1-35.4 16.1-2.2 1-4.1 1.8-4.2 1.6-.4-.3-5.9-21.2-11.6-44-2.4-9.2-4.5-16.7-4.8-16.7-.3 0-10.6 20-22.9 44.4z"/></svg>