<svg version="1" xmlns="http://www.w3.org/2000/svg" width="346.667" height="346.667" viewBox="0 0 260.000000 260.000000"><path d="M42 131.5V245h31.8c35.1 0 38.6-.4 49.4-6.2 7.6-4.1 17.7-14.8 21.6-23 3.8-7.9 5.2-15.5 5.2-27.7 0-19-5.6-36.3-14.9-46.1-4.4-4.6-13.3-10-16.6-10-2.6 0-1.6-1.8 1.3-2.5 5.3-1.1 15.3-8.6 19.8-14.7 8.1-11.1 11.1-24.3 10.1-45.3-1.1-24-8.5-38.2-24.1-46.2-9-4.6-15.4-5.3-50.8-5.3H42v113.5zm64.6-83.8c5.5 2.9 10.9 9.3 12.4 14.7.8 2.8 1.1 10 .8 21.2-.3 18.2-.9 20.5-6.7 26.7-5.6 6.1-9.1 7.1-25.8 7.5l-15.3.4V44.8l15.3.4c13.3.3 15.7.6 19.3 2.5zm-1.1 98.7c2.6.8 6.3 3 8.2 4.8 5.2 5 6.3 10.4 6.3 30.2 0 18.7-1 22.8-6.8 28.9-5.8 6.1-9.3 7.1-25.9 7.5l-15.3.4V145h14.3c9.7 0 16 .5 19.2 1.4zM185.3 27.1L171 36.2V48h25v197h30V18h-26.5l-14.2 9.1z"/></svg>